<?xml version="1.0" standalone="no"?>
<svg
  width="600"
  height="600"
  viewBox="0 0 600 600"
  xmlns="http://www.w3.org/2000/svg"
>
  <g transform="translate(300,300)">
    <path d="M139.6,-159.2C167.3,-143.1,166.9,-86.2,162.4,-39.3C158,7.6,149.6,44.6,132.7,79.2C115.8,113.8,90.4,146.2,57.3,158.8C24.3,171.3,-16.4,164.1,-49.9,147.5C-83.4,130.8,-109.7,104.6,-136.9,72C-164.2,39.4,-192.4,0.2,-187.2,-33.7C-182,-67.6,-143.4,-96.2,-106.6,-110.7C-69.8,-125.2,-34.9,-125.6,10.5,-138.1C55.9,-150.6,111.8,-175.3,139.6,-159.2Z" fill="#0693e3" />
  </g>
</svg>
  