<svg xmlns="http://www.w3.org/2000/svg" viewBox="0 0 1440 320"><path fill="#09f" fill-opacity=".5" d="M0,32L21.8,48C43.6,64,87,96,131,112C174.5,128,218,128,262,128C305.5,128,349,128,393,128C436.4,128,480,128,524,144C567.3,160,611,192,655,208C698.2,224,742,224,785,240C829.1,256,873,288,916,293.3C960,299,1004,277,1047,261.3C1090.9,245,1135,235,1178,245.3C1221.8,256,1265,288,1309,256C1352.7,224,1396,128,1418,80L1440,32L1440,320L1418.2,320C1396.4,320,1353,320,1309,320C1265.5,320,1222,320,1178,320C1134.5,320,1091,320,1047,320C1003.6,320,960,320,916,320C872.7,320,829,320,785,320C741.8,320,698,320,655,320C610.9,320,567,320,524,320C480,320,436,320,393,320C349.1,320,305,320,262,320C218.2,320,175,320,131,320C87.3,320,44,320,22,320L0,320Z"/></svg>